<svg width="271" height="138" viewBox="0 0 271 138" fill="none" xmlns="http://www.w3.org/2000/svg">
<g id="Group 7732">
<g id="Group 7720">
<g id="Group 7731">
<g id="Rectangle 3663" filter="url(#filter0_d_401_1798)">
<path d="M40 59.2231C40 47.5019 49.2859 38 60.7407 38H76.2963C87.7511 38 97.037 47.5019 97.037 59.2231V73.814C97.037 85.5351 87.7511 95.037 76.2963 95.037H60.7407C49.2859 95.037 40 85.5351 40 73.814V59.2231Z" fill="url(#paint0_linear_401_1798)"/>
<path d="M40.5 59.2231C40.5 47.7671 49.5729 38.5 60.7407 38.5H76.2963C87.4642 38.5 96.537 47.7671 96.537 59.2231V73.814C96.537 85.2699 87.4642 94.537 76.2963 94.537H60.7407C49.5729 94.537 40.5 85.2699 40.5 73.814V59.2231Z" stroke="url(#paint1_linear_401_1798)"/>
</g>
<path id="B" d="M84.7554 51.8472C84.7554 50.7426 83.8599 49.8472 82.7554 49.8472H67.1184C64.964 49.8472 63.0912 50.0788 61.5 50.542C59.8947 50.9911 58.564 51.6157 57.5079 52.4158C56.4518 53.2159 55.6703 54.1704 55.1633 55.2792C54.6423 56.3741 54.3818 57.5601 54.3818 58.8374C54.3818 60.1006 54.6232 61.269 55.1061 62.3426C55.6133 63.4706 55.3723 64.8931 54.493 65.7628C53.8738 66.3751 53.3651 67.0634 52.9667 67.8277C52.2203 69.2594 51.8472 70.8876 51.8472 72.7124C51.8472 74.2423 52.1077 75.6249 52.6287 76.8601C53.1356 78.0953 53.9171 79.155 54.9732 80.0393C56.0153 80.9096 57.3389 81.5833 58.9442 82.0606C60.5354 82.5238 62.4153 82.7554 64.5838 82.7554H82.7554C83.8599 82.7554 84.7554 81.8599 84.7554 80.7554V51.8472ZM64.5415 62.4799C64.2714 62.4799 64.0044 62.4845 63.7404 62.4937C63.1742 62.5135 62.5987 62.3338 62.2586 61.8806C61.7106 61.1501 61.4366 60.3463 61.4366 59.4691C61.4366 58.276 61.9083 57.3566 62.8518 56.7109C63.7812 56.0512 65.147 55.7214 66.9495 55.7214H76.0597C77.1642 55.7214 78.0597 56.6168 78.0597 57.7214V60.4799C78.0597 61.5844 77.1642 62.4799 76.0597 62.4799H64.5415ZM64.4148 76.9443C62.6124 76.9443 61.2465 76.5583 60.3171 75.7863C59.3737 75.0143 58.902 73.9265 58.902 72.5229C58.902 71.1192 59.3737 70.0244 60.3171 69.2384C61.2465 68.4523 62.6124 68.0593 64.4148 68.0593H76.0597C77.1642 68.0593 78.0597 68.9547 78.0597 70.0593V74.9443C78.0597 76.0489 77.1642 76.9443 76.0597 76.9443H64.4148Z" fill="#121212"/>
</g>
</g>
<g id="Bizmo">
<path d="M106.163 50.1765H123.359C125.46 50.1765 127.286 50.4048 128.837 50.8615C130.403 51.3044 131.7 51.9202 132.73 52.7091C133.759 53.4979 134.521 54.439 135.016 55.5324C135.524 56.6118 135.778 57.7813 135.778 59.0407C135.778 61.1028 135.132 62.9088 133.842 64.4589C135.325 65.3446 136.43 66.4933 137.158 67.9049C137.885 69.3165 138.249 70.9219 138.249 72.7211C138.249 74.2296 137.995 75.5928 137.487 76.8106C136.993 78.0285 136.231 79.0734 135.201 79.9453C134.185 80.8033 132.895 81.4676 131.329 81.9382C129.778 82.3949 127.945 82.6232 125.831 82.6232H106.163V50.1765ZM125.872 62.632C126.435 62.632 126.984 62.6528 127.519 62.6943C128.439 61.8086 128.899 60.7983 128.899 59.6635C128.899 58.4871 128.439 57.5806 127.519 56.944C126.613 56.2935 125.281 55.9683 123.524 55.9683H112.691V62.632H125.872ZM125.995 76.8937C127.753 76.8937 129.085 76.5131 129.991 75.7519C130.911 74.9907 131.371 73.9182 131.371 72.5342C131.371 71.1503 130.911 70.0708 129.991 69.2958C129.085 68.5208 127.753 68.1333 125.995 68.1333H112.691V76.8937H125.995Z" fill="#121212"/>
<path d="M147.331 54.785C146.727 54.785 146.178 54.702 145.684 54.5359C145.203 54.356 144.791 54.1207 144.448 53.8301C144.105 53.5256 143.837 53.1796 143.645 52.7921C143.466 52.3908 143.377 51.9687 143.377 51.5258C143.377 51.0691 143.466 50.647 143.645 50.2595C143.837 49.8581 144.105 49.5122 144.448 49.2215C144.791 48.9309 145.203 48.7025 145.684 48.5365C146.178 48.3566 146.727 48.2666 147.331 48.2666C147.949 48.2666 148.498 48.3566 148.979 48.5365C149.473 48.7025 149.892 48.9309 150.235 49.2215C150.578 49.5122 150.839 49.8581 151.018 50.2595C151.21 50.647 151.306 51.0691 151.306 51.5258C151.306 51.9687 151.21 52.3908 151.018 52.7921C150.839 53.1796 150.578 53.5256 150.235 53.8301C149.892 54.1207 149.473 54.356 148.979 54.5359C148.498 54.702 147.949 54.785 147.331 54.785ZM144.283 58.1273H150.379V82.6232H144.283V58.1273Z" fill="#121212"/>
<path d="M169.923 63.2341H157.464V58.1273H181.229L166.237 77.5165H180.406V82.6232H155.033L169.923 63.2341Z" fill="#121212"/>
<path d="M186.46 58.1273H192.556V60.2032C194.08 59.2621 195.563 58.6117 197.005 58.2518C198.46 57.8782 199.881 57.6913 201.268 57.6913C203.204 57.6913 204.982 58.0027 206.602 58.6255C208.222 59.2483 209.608 60.1894 210.762 61.4488C211.654 60.7568 212.533 60.1755 213.398 59.705C214.263 59.2206 215.128 58.8331 215.993 58.5425C216.858 58.238 217.736 58.0235 218.629 57.8989C219.521 57.7605 220.441 57.6913 221.388 57.6913C223.379 57.6913 225.185 57.9681 226.805 58.5217C228.425 59.0614 229.805 59.8711 230.944 60.9505C232.097 62.03 232.983 63.3794 233.601 64.9986C234.232 66.604 234.548 68.4654 234.548 70.5829V82.6232H228.473V71.5793C228.473 70.2369 228.281 69.0397 227.896 67.9879C227.525 66.9223 226.997 66.0296 226.31 65.31C225.638 64.5765 224.828 64.0229 223.88 63.6492C222.947 63.2617 221.917 63.068 220.791 63.068C220.173 63.068 219.542 63.1303 218.896 63.2548C218.251 63.3655 217.62 63.5454 217.002 63.7946C216.398 64.0437 215.828 64.362 215.292 64.7495C214.757 65.1232 214.29 65.566 213.892 66.0781V82.6232H207.817V71.5793C207.817 70.2369 207.625 69.0397 207.24 67.9879C206.869 66.9223 206.341 66.0296 205.654 65.31C204.982 64.5765 204.165 64.0229 203.204 63.6492C202.256 63.2617 201.213 63.068 200.073 63.068C199.373 63.068 198.666 63.1441 197.952 63.2963C197.252 63.4347 196.572 63.6354 195.913 63.8984C195.268 64.1613 194.657 64.4796 194.08 64.8533C193.517 65.227 193.009 65.6491 192.556 66.1196V82.6232H186.46V58.1273Z" fill="#121212"/>
<path d="M240.768 70.3753C240.768 68.6176 241.118 66.9707 241.818 65.4345C242.532 63.8984 243.541 62.5559 244.845 61.4072C246.163 60.2586 247.749 59.3521 249.603 58.6878C251.47 58.0235 253.564 57.6913 255.884 57.6913C258.204 57.6913 260.291 58.0235 262.145 58.6878C264.012 59.3521 265.598 60.2586 266.902 61.4072C268.22 62.5559 269.229 63.8984 269.929 65.4345C270.643 66.9707 271 68.6176 271 70.3753C271 72.1329 270.643 73.7798 269.929 75.316C269.229 76.8522 268.22 78.1946 266.902 79.3433C265.598 80.492 264.012 81.3984 262.145 82.0627C260.291 82.727 258.204 83.0592 255.884 83.0592C253.564 83.0592 251.47 82.727 249.603 82.0627C247.749 81.3984 246.163 80.492 244.845 79.3433C243.541 78.1946 242.532 76.8522 241.818 75.316C241.118 73.7798 240.768 72.1329 240.768 70.3753ZM247.172 70.3753C247.172 71.3579 247.365 72.292 247.749 73.1778C248.147 74.0497 248.717 74.8247 249.458 75.5028C250.214 76.1671 251.127 76.6999 252.197 77.1013C253.282 77.4888 254.511 77.6825 255.884 77.6825C257.257 77.6825 258.479 77.4888 259.55 77.1013C260.634 76.6999 261.547 76.1671 262.289 75.5028C263.044 74.8247 263.614 74.0497 263.998 73.1778C264.396 72.292 264.595 71.3579 264.595 70.3753C264.595 69.3927 264.396 68.4585 263.998 67.5728C263.614 66.687 263.044 65.912 262.289 65.2477C261.547 64.5696 260.634 64.0368 259.55 63.6492C258.479 63.2479 257.257 63.0472 255.884 63.0472C254.511 63.0472 253.282 63.2479 252.197 63.6492C251.127 64.0368 250.214 64.5696 249.458 65.2477C248.717 65.912 248.147 66.687 247.749 67.5728C247.365 68.4585 247.172 69.3927 247.172 70.3753Z" fill="#121212"/>
</g>
</g>
<defs>
<filter id="filter0_d_401_1798" x="0" y="0" width="137.037" height="137.037" filterUnits="userSpaceOnUse" color-interpolation-filters="sRGB">
<feFlood flood-opacity="0" result="BackgroundImageFix"/>
<feColorMatrix in="SourceAlpha" type="matrix" values="0 0 0 0 0 0 0 0 0 0 0 0 0 0 0 0 0 0 127 0" result="hardAlpha"/>
<feOffset dy="2"/>
<feGaussianBlur stdDeviation="20"/>
<feComposite in2="hardAlpha" operator="out"/>
<feColorMatrix type="matrix" values="0 0 0 0 1 0 0 0 0 0.996078 0 0 0 0 0 0 0 0 0.25 0"/>
<feBlend mode="normal" in2="BackgroundImageFix" result="effect1_dropShadow_401_1798"/>
<feBlend mode="normal" in="SourceGraphic" in2="effect1_dropShadow_401_1798" result="shape"/>
</filter>
<linearGradient id="paint0_linear_401_1798" x1="40" y1="38" x2="97.037" y2="95.037" gradientUnits="userSpaceOnUse">
<stop stop-color="#FFFE00"/>
<stop offset="1" stop-color="#E2E100"/>
</linearGradient>
<linearGradient id="paint1_linear_401_1798" x1="40" y1="38" x2="97.037" y2="95.037" gradientUnits="userSpaceOnUse">
<stop stop-color="white"/>
<stop offset="1" stop-color="white" stop-opacity="0.34"/>
</linearGradient>
</defs>
</svg>
